<?xml version="1.0"?>
<svg xmlns="http://www.w3.org/2000/svg" id="Layer_1" data-name="Layer 1" viewBox="0 0 512 512" width="512" height="512"><path d="M183.978,69.362A15.062,15.062,0,1,0,168.928,54.3,15.074,15.074,0,0,0,183.978,69.362Z"/><path d="M185.238,111.489l26.239-35.1a34.788,34.788,0,0,0,7.134-23.106C217.578,37.409,204.814,21,185.238,21S152.9,37.409,151.867,53.273a35.673,35.673,0,0,0,7.169,23.169Zm-1.26-82.251A25.062,25.062,0,1,1,158.928,54.3,25.084,25.084,0,0,1,183.978,29.238Z"/><path d="M362.989,152.509A17.6,17.6,0,0,0,374.1,158.4l2.923.361a25.73,25.73,0,0,1,21.464,18.077,25.208,25.208,0,0,1-7.407,26.124l-28.943,25.593a16.663,16.663,0,0,0-5.621,12.478v6.791a13.026,13.026,0,0,0,5.978,10.985,24.182,24.182,0,0,1,11,18l.678,6.781a11.181,11.181,0,0,0,11.155,10.11H402.27a25.13,25.13,0,0,0,23.006-15.042l1.018-2.321a24.281,24.281,0,0,1,21.262-14.6l3.98-.181c.446-.02.888-.052,1.329-.1l9.657-.972a327.337,327.337,0,0,0-10.752-55.738l-5.674,7.587a5,5,0,0,1-8.008,0l-24.314-32.512a37.728,37.728,0,0,1-7.511-24.575,37.167,37.167,0,0,1,5.267-16.823,225.189,225.189,0,0,0-33.511-27.176L361.641,139.33A11.453,11.453,0,0,0,362.989,152.509Z"/><path d="M442.092,201l20.31-27.158a26.968,26.968,0,0,0,5.542-17.915c-.8-12.313-10.689-25.035-25.852-25.035s-25.051,12.722-25.851,25.021a27.69,27.69,0,0,0,5.578,17.978Zm-1.013-65.45a21.124,21.124,0,1,1-21.12,21.124A21.146,21.146,0,0,1,441.079,135.551Z"/><path d="M453.867,271.417q-.937.093-1.88.137l-3.977.18a14.346,14.346,0,0,0-12.558,8.626l-1.018,2.321a35.132,35.132,0,0,1-32.164,21.025H385.327a21.15,21.15,0,0,1-21.106-19.116l-.677-6.78a14.236,14.236,0,0,0-6.473-10.6,22.986,22.986,0,0,1-10.553-19.385v-6.791a26.668,26.668,0,0,1,9-19.97l28.943-25.592a15.184,15.184,0,0,0,4.46-15.735,15.726,15.726,0,0,0-13.117-11.05l-2.922-.361a27.585,27.585,0,0,1-17.419-9.237,21.473,21.473,0,0,1-2.481-24.757l16.607-28.465A252.642,252.642,0,0,0,341.954,91.2c-29.4-13.306-59.862-20.338-88.1-20.338-2.686,0-5.626.085-8.733.247l22.206,32.032a34.961,34.961,0,0,1-1.041,41.378l-7.118,9.244a27.367,27.367,0,0,1-25.062,10.415l-8.073-1.032a18.265,18.265,0,0,0-18.081,8.88,27.473,27.473,0,0,1-27.181,13.356l-18.642-2.369a19.3,19.3,0,0,0-18.5,8.373,15.906,15.906,0,0,0-.269,17.423l12.316,19.465a14.051,14.051,0,0,0,18.447,4.859l12.68-6.8c8.353-4.48,20.553-4.983,30.47-1.742,3.911-20.624,21.683-36.082,42.637-36.082,22.791,0,41.833,18.283,43.35,41.625a44.756,44.756,0,0,1-9.107,29.76l-7.823,10.465,4.591,6.3q1.013,1.41,2.1,2.689l15.4,18.138a18.834,18.834,0,0,1-2.877,27.12L282.2,342.553a26.593,26.593,0,0,0-9.259,13.332l-7.776,25.252a26.653,26.653,0,0,1-5,9.235l-7.568,9.112a33.369,33.369,0,0,0-7.546,17.95,22.933,22.933,0,0,1-13.938,18.8,16.949,16.949,0,0,1-23.276-12.853l-7.129-42.819a22.223,22.223,0,0,0-4.227-9.78L170.363,336.5a41.21,41.21,0,0,1-6.963-14.034l-8.621-31.133a21.784,21.784,0,0,0-15.186-15.139l-1.874-.511a35.121,35.121,0,0,1-14.783-8.29l-16.08-15.149a47.332,47.332,0,0,1-8.495-10.714,24.794,24.794,0,0,0-25.967-11.945l-23.439,7.625A208.155,208.155,0,0,0,44,280.933C44,396.764,138.14,491,253.853,491s209.853-94.236,209.853-210.067c0-3.258-.124-6.776-.354-10.471Z"/><path d="M441.079,167.8a11.124,11.124,0,1,0-11.12-11.124A11.134,11.134,0,0,0,441.079,167.8Z"/><path d="M86.643,150.778a15.062,15.062,0,1,0-15.051-15.062A15.074,15.074,0,0,0,86.643,150.778Z"/><path d="M70.176,219.827a34.8,34.8,0,0,1,36.835,16.683,37.328,37.328,0,0,0,6.7,8.453l16.08,15.149a25.074,25.074,0,0,0,10.559,5.921l1.873.511a31.83,31.83,0,0,1,22.191,22.118l8.621,31.133a31.256,31.256,0,0,0,5.28,10.643l26.121,34.281a32.245,32.245,0,0,1,6.138,14.2l7.129,42.819a6.95,6.95,0,0,0,9.542,5.276,12.938,12.938,0,0,0,7.861-10.607,43.338,43.338,0,0,1,9.8-23.311l7.569-9.111a16.72,16.72,0,0,0,3.131-5.789l7.776-25.252a36.543,36.543,0,0,1,12.722-18.318l23.342-17.942a8.833,8.833,0,0,0,1.348-12.718l-15.4-18.138c-.9-1.064-1.771-2.176-2.581-3.305l-2.752-3.776-16.15,21.6a5,5,0,0,1-8.009,0l-30.243-40.453a46.677,46.677,0,0,1-9.122-24.889c-7.569-3.346-18.4-3.4-25.011.145l-12.68,6.8a23.785,23.785,0,0,1-11.266,2.827,24.081,24.081,0,0,1-20.358-11.152L134.907,214.16a25.907,25.907,0,0,1,.437-28.375A29.244,29.244,0,0,1,163.389,173.1l18.642,2.369a17.491,17.491,0,0,0,17.3-8.5,28.256,28.256,0,0,1,27.97-13.732l8.074,1.032a17.331,17.331,0,0,0,15.87-6.6l7.119-9.244a25,25,0,0,0,.745-29.581L233.568,72c-2.84.282-5.727.613-8.615.989a47.024,47.024,0,0,1-5.471,9.4l-30.239,40.447a5,5,0,0,1-8.009,0L158.97,93.054A281.09,281.09,0,0,0,125.5,114.726a44.437,44.437,0,0,1-3.352,49.076L91.907,204.249a5,5,0,0,1-8.009,0L67.862,182.8a235.6,235.6,0,0,0-16.129,42.989L69.6,219.977A5,5,0,0,1,70.176,219.827Z"/><path d="M286.145,253.907a34.788,34.788,0,0,0,7.134-23.106c-1.032-15.878-13.8-32.287-33.372-32.287s-32.34,16.409-33.371,32.273a35.673,35.673,0,0,0,7.169,23.169L259.907,289ZM233.6,231.814a25.051,25.051,0,1,1,25.051,25.062A25.085,25.085,0,0,1,233.6,231.814Z"/><ellipse cx="258.647" cy="231.814" rx="15.051" ry="15.062"/><path d="M87.9,192.905l26.238-35.1a34.786,34.786,0,0,0,7.134-23.106c-1.032-15.878-13.8-32.287-33.372-32.287s-32.34,16.409-33.371,32.273A35.673,35.673,0,0,0,61.7,157.858Zm-1.26-82.251a25.062,25.062,0,1,1-25.051,25.062A25.085,25.085,0,0,1,86.643,110.654Z"/></svg>
