<svg id="Layer_1" enable-background="new 0 0 512.027 512.027" height="512" viewBox="0 0 512.027 512.027" width="512" xmlns="http://www.w3.org/2000/svg"><g><path d="m449.002 139.415-68.838 63.722-11.395 40.185h-56.515l-4.734-6.75c-21.48 24.023-39.859 40.011-41.709 41.604l-9.788 8.428-9.788-8.428c-3.161-2.723-54.603-47.482-87.303-102.601l-24.786-8.779h-97.614v56.528l-36.508 36.507v130.747l64.231 64.231h94.541l43.529 46.164h68.864v-35.554l25.261-21.149h57.827l18.605 67.757h94.075l-24.252-99.426 25.067-48.102v-86.006l44.231-76.525v-62.553z"/><path d="m256.01 113.083c9.635 0 17.474-7.838 17.474-17.474s-7.839-17.474-17.474-17.474-17.474 7.839-17.474 17.474 7.838 17.474 17.474 17.474z"/><path d="m162.203 93.821c0 28.831 17.546 65.618 50.742 106.385 16.39 20.128 32.964 36.691 43.079 46.273 10.115-9.582 26.689-26.145 43.079-46.273 33.196-40.767 50.742-77.554 50.742-106.385 0-51.733-42.088-93.821-93.821-93.821s-93.821 42.088-93.821 93.821zm93.807-45.686c26.177 0 47.474 21.297 47.474 47.474s-21.297 47.474-47.474 47.474-47.474-21.296-47.474-47.474 21.296-47.474 47.474-47.474z"/></g></svg>